<?xml version="1.0" encoding="UTF-8" standalone="yes"?>
<!DOCTYPE svg PUBLIC "-//W3C//DTD SVG 1.1//EN" "http://www.w3.org/Graphics/SVG/1.1/DTD/svg11.dtd">

<svg width="256" height="256" viewBox="0 0 256 256" xmlns="http://www.w3.org/2000/svg" xmlns:xlink="http://www.w3.org/1999/xlink" version="1.1" baseProfile="full">
    <g transform="scale(1,-1) translate(0,-256)">
        <path d="M 1.667659 1.000000 L 257.667659 1.000000 C 257.667659 1.000000 257.667659 1.000000 257.667659 1.000000 L 257.667659 257.000000 C 257.667659 257.000000 257.667659 257.000000 257.667659 257.000000 L 1.667659 257.000000 C 1.667659 257.000000 1.667659 257.000000 1.667659 257.000000 L 1.667659 1.000000 C 1.667659 1.000000 1.667659 1.000000 1.667659 1.000000 Z" transform="scale(1.000000,1.000000) translate(-2.000000,-1.000000)" fill="#3362b0" opacity="1.000000"></path>
        <path d="M 1.315153 1.911110 L 104.315153 1.911110 C 104.315153 1.911110 104.315153 1.911110 104.315153 1.911110 L 104.315153 104.911110 C 104.315153 104.911110 104.315153 104.911110 104.315153 104.911110 L 1.315153 104.911110 C 1.315153 104.911110 1.315153 104.911110 1.315153 104.911110 L 1.315153 1.911110 C 1.315153 1.911110 1.315153 1.911110 1.315153 1.911110 Z" transform="scale(1.000000,1.000000) translate(35.000000,112.000000)" fill="#ffffff" opacity="1.000000"></path>
        <path d="M 1.717169 1.530303 L 104.717169 1.530303 C 104.717169 1.530303 104.717169 1.530303 104.717169 1.530303 L 104.717169 104.530303 C 104.717169 104.530303 104.717169 104.530303 104.717169 104.530303 L 1.717169 104.530303 C 1.717169 104.530303 1.717169 104.530303 1.717169 104.530303 L 1.717169 1.530303 C 1.717169 1.530303 1.717169 1.530303 1.717169 1.530303 Z" transform="scale(1.000000,1.000000) translate(118.000000,33.000000)" fill="#ffffff" opacity="1.000000"></path>
        <path d="M 2.273908 49.194858 L 2.273908 42.758253 L 11.681254 42.758253 C 14.280653 33.784139 18.922435 25.924053 25.606603 19.116105 C 19.169997 13.669747 11.000459 9.708759 1.159880 7.171251 L 4.625744 1.477330 C 14.713886 4.324291 23.254766 8.842293 30.186495 14.969446 C 36.746882 9.523087 44.978310 4.943195 54.880780 1.229769 L 58.470425 6.738018 C 49.063079 10.203882 41.141103 14.412432 34.766388 19.487448 C 40.460308 25.738382 44.792639 33.474687 47.763380 42.758253 L 57.108836 42.758253 L 57.108836 49.194858 L 33.714250 49.194858 C 31.857537 53.217737 29.815153 56.683601 27.587097 59.592452 L 21.088601 57.240615 C 23.316657 54.703107 25.235260 52.041818 26.782521 49.194858 Z M 17.870298 42.758253 L 41.079212 42.758253 C 38.665485 35.269510 35.013949 28.832904 30.186495 23.510326 C 24.492575 29.080466 20.407806 35.455181 17.870298 42.758253 Z" transform="scale(1.000000,1.000000) translate(58.000000,135.000000)" fill="#3362b0" opacity="1.000000"></path>
        <path d="M 15.770776 27.584790 L 22.385628 27.584790 L 26.185163 9.617111 L 30.076252 27.584790 L 36.874215 27.584790 L 29.641366 2.636038 L 22.934958 2.636038 L 19.020980 20.809716 L 15.061224 2.636038 L 8.286150 2.636038 L 1.282189 27.584790 L 8.286150 27.584790 L 12.177240 9.685777 Z M 50.309919 22.869704 Q 48.043931 22.869704 46.796494 21.450601 Q 45.549056 20.031498 45.228613 17.605289 L 55.368335 17.605289 Q 55.208114 20.191719 53.800455 21.530712 Q 52.392796 22.869704 50.309919 22.869704 Z M 50.309919 28.248564 Q 53.422790 28.248564 55.917666 27.081237 Q 58.412541 25.913910 60.037643 23.396146 Q 61.502524 21.175936 61.937410 18.246174 Q 62.189187 16.529517 62.143409 13.302201 L 45.068392 13.302201 Q 45.205725 9.548444 47.425935 8.037786 Q 48.776372 7.099347 50.676139 7.099347 Q 52.690350 7.099347 53.949232 8.243785 Q 54.635895 8.861781 55.162336 9.960442 L 61.822966 9.960442 Q 61.571190 7.740232 59.511201 5.451356 Q 56.306775 1.812043 50.538806 1.812043 Q 45.777944 1.812043 42.138630 4.879137 Q 38.499317 7.946231 38.499317 14.858637 Q 38.499317 21.336157 41.783855 24.792360 Q 45.068392 28.248564 50.309919 28.248564 Z M 80.362864 28.179897 Q 84.231065 28.179897 86.691607 26.154242 Q 89.152149 24.128586 89.152149 19.436390 L 89.152149 2.636038 L 82.468631 2.636038 L 82.468631 17.811288 Q 82.468631 19.779721 81.942189 20.832604 Q 80.980861 22.755261 78.279987 22.755261 Q 74.961116 22.755261 73.725123 19.939943 Q 73.084238 18.452173 73.084238 16.140408 L 73.084238 2.636038 L 66.583829 2.636038 L 66.583829 27.539012 L 72.878239 27.539012 L 72.878239 23.899699 Q 74.137121 25.822355 75.258670 26.669239 Q 77.272881 28.179897 80.362864 28.179897 Z" transform="scale(1.000000,1.000000) translate(126.000000,71.000000)" fill="#3362b0" opacity="1.000000"></path>
    </g>
</svg>